<svg xmlns="http://www.w3.org/2000/svg" version="1.1" xmlns:xlink="http://www.w3.org/1999/xlink" xmlns:svgjs="http://svgjs.dev/svgjs" width="128" height="128" viewBox="0 0 128 128"><g transform="matrix(0.8046875,0,0,0.8046875,12.333870967741944,12.333870967741937)"><svg viewBox="0 0 155 155" data-background-color="#ffffff" preserveAspectRatio="xMidYMid meet" height="128" width="128" xmlns="http://www.w3.org/2000/svg" xmlns:xlink="http://www.w3.org/1999/xlink"><g id="tight-bounds" transform="matrix(1,0,0,1,0.2499999999999858,0.25)"><svg viewBox="0 0 154.5 154.5" height="154.5" width="154.5"><g><svg></svg></g><g><svg viewBox="0 0 154.5 154.5" height="154.5" width="154.5"><g><path d="M0 144.15l52.496-90.926 0 5.074-48.022 83.177h145.552l-48.022-83.177v-5.074l52.496 90.926zM77.25 10.35l21.26 36.823h-2.929l-18.331-31.75-18.331 31.75-2.929 0z" fill="#ffffff" fill-rule="nonzero" stroke="none" stroke-width="1" stroke-linecap="butt" stroke-linejoin="miter" stroke-miterlimit="10" stroke-dasharray="" stroke-dashoffset="0" font-family="none" font-weight="none" font-size="none" text-anchor="none" style="mix-blend-mode: normal" data-fill-palette-color="tertiary"></path></g><g transform="matrix(1,0,0,1,61.08976991839762,55.766774999999996)"><svg viewBox="0 0 32.32046016320475 42.96645" height="42.96645" width="32.32046016320475"><g><svg viewBox="0 0 32.32046016320475 42.96645" height="42.96645" width="32.32046016320475"><g><svg viewBox="0 0 32.32046016320475 42.96645" height="42.96645" width="32.32046016320475"><g id="textblocktransform"><svg viewBox="0 0 32.32046016320475 42.96645" height="42.96645" width="32.32046016320475" id="textblock"><g><svg viewBox="0 0 32.32046016320475 42.96645" height="42.96645" width="32.32046016320475"><g transform="matrix(1,0,0,1,0,0)"><svg width="32.32046016320475" viewBox="4 -33.7 25.35 33.7" height="42.96645" data-palette-color="#6b7280"><path d="M7.1-14.25L7.1 0 4 0 4-33.7 8.25-33.7 16.85-19.45 26.35-3.65Q26.25-8.85 26.25-19.4L26.25-19.4 26.25-33.7 29.35-33.7 29.35 0 25.1 0 16.55-14.15 7-30.05Q7.1-24.65 7.1-14.25L7.1-14.25Z" opacity="1" transform="matrix(1,0,0,1,0,0)" fill="#ffffff" class="undefined-text-0" data-fill-palette-color="primary" id="text-0"></path></svg></g></svg></g></svg></g></svg></g></svg></g></svg></g></svg></g><defs></defs></svg><rect width="154.5" height="154.5" fill="none" stroke="none" visibility="hidden"></rect></g></svg></g></svg>