<svg xmlns="http://www.w3.org/2000/svg" version="1.1" xmlns:xlink="http://www.w3.org/1999/xlink" xmlns:svgjs="http://svgjs.dev/svgjs" width="1000" height="623" viewBox="0 0 1000 623"><g transform="matrix(1,0,0,1,-0.6060606060606233,0.2522267206477409)"><svg viewBox="0 0 396 247" data-background-color="#ffffff" preserveAspectRatio="xMidYMid meet" height="623" width="1000" xmlns="http://www.w3.org/2000/svg" xmlns:xlink="http://www.w3.org/1999/xlink"><g id="tight-bounds" transform="matrix(1,0,0,1,0.2400000000000091,-0.09999999999999432)"><svg viewBox="0 0 395.52 247.2" height="247.2" width="395.52"><g><svg></svg></g><g><svg viewBox="0 0 395.52 247.2" height="247.2" width="395.52"><g><path xmlns="http://www.w3.org/2000/svg" d="M55.039 247.2l26.403-45.732h7.584l-22.403 38.804h262.274l-22.403-38.804 7.584 0 26.403 45.732zM197.76 0l26.403 45.732-7.583 0-18.82-32.596-18.82 32.596-7.583 0z" fill="#ffffff" fill-rule="nonzero" stroke="none" stroke-width="1" stroke-linecap="butt" stroke-linejoin="miter" stroke-miterlimit="10" stroke-dasharray="" stroke-dashoffset="0" font-family="none" font-weight="none" font-size="none" text-anchor="none" style="mix-blend-mode: normal" data-fill-palette-color="tertiary"></path></g><g transform="matrix(1,0,0,1,47.652017804154326,67.97999999999999)"><svg viewBox="0 0 300.21596439169133 111.24" height="111.24" width="300.21596439169133"><g><svg viewBox="0 0 300.21596439169133 111.24" height="111.24" width="300.21596439169133"><g><svg viewBox="0 0 300.21596439169133 111.24" height="111.24" width="300.21596439169133"><g id="textblocktransform"><svg viewBox="0 0 300.21596439169133 111.24" height="111.24" width="300.21596439169133" id="textblock"><g><svg viewBox="0 0 300.21596439169133 111.24" height="111.24" width="300.21596439169133"><g transform="matrix(1,0,0,1,0,0)"><svg width="300.21596439169133" viewBox="4 -33.70000076293945 90.94000244140625 33.70000076293945" height="111.24" data-palette-color="#6b7280"><path d="M7.1-14.25L7.1 0 4 0 4-33.7 8.25-33.7 16.85-19.45 26.35-3.65Q26.25-8.85 26.25-19.4L26.25-19.4 26.25-33.7 29.35-33.7 29.35 0 25.1 0 16.55-14.15 7-30.05Q7.1-24.65 7.1-14.25L7.1-14.25ZM40.7-33.7L40.7 0 37.6 0 37.6-33.7 40.7-33.7ZM70.2-2.75L70.2 0 47.45 0 47.45-2.75 65.95-30.95 47.65-30.95 47.65-33.7 69.45-33.7 69.45-30.95 50.95-2.75 70.2-2.75ZM94.94-2.85L94.94 0 76.69 0 76.69-33.7 94.64-33.7 94.64-30.85 79.79-30.85 79.79-18.25 92.89-18.25 92.89-15.4 79.79-15.4 79.79-2.85 94.94-2.85Z" opacity="1" transform="matrix(1,0,0,1,0,0)" fill="#ffffff" class="undefined-text-0" data-fill-palette-color="primary" id="text-0"></path></svg></g></svg></g></svg></g></svg></g></svg></g></svg></g></svg></g><defs></defs></svg><rect width="395.52" height="247.2" fill="none" stroke="none" visibility="hidden"></rect></g></svg></g></svg>